HIERARCHY
ROOT __0
{
	OFFSET 0.0 0.0 0.0
	CHANNELS 0
	JOINT LEFT_ELBOW
	{
		OFFSET 0.000000 0.000000 0.000000
		CHANNELS 6 Xposition Yposition Zposition Xrotation Yrotation Zrotation
		End Site
		{
			OFFSET 0.000000 0.000000 1.000000
		}
	}
	JOINT LEFT_WRIST
	{
		OFFSET 0.000000 0.000000 0.000000
		CHANNELS 6 Xposition Yposition Zposition Xrotation Yrotation Zrotation
		End Site
		{
			OFFSET 0.000000 0.000000 1.000000
		}
	}
	JOINT RIGHT_ELBOW
	{
		OFFSET 0.000000 0.000000 0.000000
		CHANNELS 6 Xposition Yposition Zposition Xrotation Yrotation Zrotation
		End Site
		{
			OFFSET 0.000000 0.000000 1.000000
		}
	}
	JOINT RIGHT_WRIST
	{
		OFFSET 0.000000 0.000000 0.000000
		CHANNELS 6 Xposition Yposition Zposition Xrotation Yrotation Zrotation
		End Site
		{
			OFFSET 0.000000 0.000000 1.000000
		}
	}
	JOINT RIGHT_INDEX
	{
		OFFSET 0.000000 0.000000 0.000000
		CHANNELS 6 Xposition Yposition Zposition Xrotation Yrotation Zrotation
		End Site
		{
			OFFSET 0.000000 0.000000 1.000000
		}
	}
	JOINT LEFT_INDEX
	{
		OFFSET 0.000000 0.000000 0.000000
		CHANNELS 6 Xposition Yposition Zposition Xrotation Yrotation Zrotation
		End Site
		{
			OFFSET 0.000000 0.000000 1.000000
		}
	}
	JOINT RIGHT_SHOULDER
	{
		OFFSET 0.000000 0.000000 0.000000
		CHANNELS 6 Xposition Yposition Zposition Xrotation Yrotation Zrotation
		End Site
		{
			OFFSET 0.000000 0.000000 1.000000
		}
	}
	JOINT LEFT_SHOULDER
	{
		OFFSET 0.000000 0.000000 0.000000
		CHANNELS 6 Xposition Yposition Zposition Xrotation Yrotation Zrotation
		End Site
		{
			OFFSET 0.000000 0.000000 1.000000
		}
	}
	JOINT NECK
	{
		OFFSET 0.000000 0.000000 0.000000
		CHANNELS 6 Xposition Yposition Zposition Xrotation Yrotation Zrotation
		End Site
		{
			OFFSET 0.000000 0.000000 1.000000
		}
	}
	JOINT HEAD
	{
		OFFSET 0.000000 0.000000 0.000000
		CHANNELS 6 Xposition Yposition Zposition Xrotation Yrotation Zrotation
		End Site
		{
			OFFSET 0.000000 0.000000 1.000000
		}
	}
	JOINT HEAD_NECK
	{
		OFFSET 0.000000 0.000000 0.000000
		CHANNELS 6 Xposition Yposition Zposition Xrotation Yrotation Zrotation
		End Site
		{
			OFFSET 0.000000 0.000000 1.000000
		}
	}
	JOINT LTHUMB_MCP
	{
		OFFSET 0.000000 0.000000 0.000000
		CHANNELS 6 Xposition Yposition Zposition Xrotation Yrotation Zrotation
		End Site
		{
			OFFSET 0.000000 0.000000 1.000000
		}
	}
}
MOTION
Frames: 6
Frame Time: 0.041667
37.880337 18.715021 -15.765778 -68.849898 7.311740 5.014739 39.620087 31.360508 -10.873583 -128.012649 -4.862032 -9.952323 22.632568 18.005825 -14.176298 -61.570884 -9.262264 -5.525990 20.252747 30.838976 -7.229011 -121.635301 4.187311 7.490386 21.139992 41.156906 -13.585411 -152.399497 10.403182 40.671598 38.564148 41.140907 -18.518345 41.203704 -173.803138 163.611717 37.880337 18.715021 -15.765778 24.045546 -83.487929 21.520854 22.632568 18.005825 -14.176298 24.045526 96.512076 -26.846818 30.577032 12.383125 -0.010081 102.636768 3.341268 -4.172665 30.736063 9.725152 -0.605999 87.172509 4.265985 -4.060667 30.577032 12.383125 -0.010081 90.460385 3.866025 -3.897191 0.000000 0.000000 0.000000 -0.000000 0.000000 -0.000000 
37.938580 18.744648 -15.733507 -68.095197 6.910802 4.672830 39.554855 31.117023 -10.758639 -129.480538 -3.930512 -8.318836 22.623758 18.023455 -14.842684 -62.873708 -8.960132 -5.484201 20.339830 30.915497 -8.238025 -124.426458 4.539386 8.602844 21.280489 40.688404 -14.936304 -151.470783 8.031718 30.873650 38.676739 40.981438 -18.884611 39.850578 -173.280779 161.602385 37.938580 18.744648 -15.733507 38.992980 -85.719967 36.375115 22.623758 18.023455 -14.842684 38.992939 94.280038 -41.767344 30.587572 12.389393 -0.049278 101.996410 3.308337 -4.084600 30.746311 9.703282 -0.620052 86.484504 4.103712 -3.859531 30.587572 12.389393 -0.049278 89.835313 3.794604 -3.783721 0.000000 0.000000 0.000000 -0.000000 0.000000 -0.000000 
37.922085 18.769899 -16.130547 -67.868885 6.793174 4.573685 39.541988 31.366703 -11.007545 -127.398095 -6.057398 -12.220589 22.689875 18.007639 -15.066190 -61.732431 -9.345808 -5.593840 20.309353 30.747145 -8.215971 -121.486936 5.321060 9.484015 21.392351 40.662941 -14.289269 -152.081429 9.899560 38.417731 38.250355 41.036377 -18.400061 41.668454 -174.338666 165.194054 37.922085 18.769899 -16.130547 35.609082 -85.087683 32.844105 22.689875 18.007639 -15.066190 35.609099 94.912316 -38.573808 30.585794 12.405870 -0.024808 102.451417 3.234196 -4.025639 30.740215 9.737392 -0.614022 86.908761 4.238476 -4.015942 30.585794 12.405870 -0.024808 90.221506 3.871001 -3.885984 0.000000 0.000000 0.000000 -0.000000 0.000000 -0.000000 
37.843433 18.711905 -17.387344 -69.391833 7.181887 4.975608 39.564365 31.495266 -12.580315 -127.106597 -5.221718 -10.475582 22.616865 18.039343 -15.191363 -63.676112 -9.020471 -5.608345 20.321405 30.999435 -8.779364 -127.212041 3.486996 7.019735 21.085573 40.986919 -16.363585 -153.541123 9.547799 39.114236 38.443764 41.274261 -19.977882 40.818788 -173.873312 163.630651 37.843433 18.711905 -17.387344 17.028222 -81.422576 14.680387 22.616865 18.039343 -15.191363 17.028213 98.577429 -19.738627 30.598625 12.407142 0.001806 102.817665 3.075876 -3.853774 30.745117 9.748921 -0.602989 87.383753 4.020548 -3.841166 30.598625 12.407142 0.001806 90.635907 3.655635 -3.696407 0.000000 0.000000 0.000000 -0.000000 0.000000 -0.000000 
37.908882 18.699366 -17.596727 -67.030712 6.962895 4.614511 39.582676 31.318052 -12.248393 -125.539710 -5.527582 -10.718577 22.702675 17.987946 -16.090843 -60.774299 -9.255979 -5.435416 20.304264 30.831619 -8.905195 -119.961809 5.414711 9.357465 21.378048 40.646076 -14.562857 -150.053683 10.470948 37.824474 38.426453 41.039925 -19.193108 41.555011 -173.058620 161.836319 37.908882 18.699366 -17.596727 25.287303 -83.749539 22.740872 22.702675 17.987946 -16.090843 25.287310 96.250459 -28.098126 30.602539 12.400031 -0.004849 102.846147 2.952450 -3.701058 30.742771 9.749125 -0.609366 87.135756 4.073308 -3.874762 30.602539 12.400031 -0.004849 90.476763 3.659918 -3.690479 0.000000 0.000000 0.000000 -0.000000 0.000000 -0.000000 
37.922386 18.781359 -17.466829 -68.587817 6.922250 4.724033 39.593575 31.596397 -12.441526 -127.603575 -5.082519 -10.308736 22.631844 18.080349 -15.775896 -63.267421 -9.360542 -5.774205 20.239130 31.044138 -9.246551 -125.133669 4.403666 8.472217 21.185553 41.094700 -16.319031 -154.302019 9.982896 41.904177 38.496468 41.369095 -19.968489 41.265414 -174.367134 165.112228 37.922386 18.781359 -17.466829 22.517407 -83.173413 20.037041 22.631844 18.080349 -15.775896 22.517412 96.826592 -25.286928 30.595539 12.411577 0.008060 103.091563 2.987474 -3.761437 30.737629 9.759716 -0.608636 87.339753 4.157444 -3.968914 30.595539 12.411577 0.008060 90.686047 3.704874 -3.749472 0.000000 0.000000 0.000000 -0.000000 0.000000 -0.000000 
